<?xml version="1.0" standalone="no"?>
<!DOCTYPE svg PUBLIC "-//W3C//DTD SVG 20010904//EN"
 "http://www.w3.org/TR/2001/REC-SVG-20010904/DTD/svg10.dtd">
<svg version="1.0" xmlns="http://www.w3.org/2000/svg"
 width="512.000000pt" height="512.000000pt" viewBox="0 0 512.000000 512.000000"
 preserveAspectRatio="xMidYMid meet">

<g transform="translate(0.000000,512.000000) scale(0.100000,-0.100000)"
fill="#000000" stroke="none">
<path d="M4320 5109 c-170 -13 -441 -53 -602 -89 -306 -69 -533 -148 -803
-280 -632 -308 -1259 -918 -1634 -1589 l-53 -94 914 -914 914 -914 117 65
c651 365 1261 995 1567 1621 142 289 228 546 296 882 58 290 77 486 78 818 l1
290 -28 57 c-31 64 -70 101 -137 132 -41 18 -68 20 -275 22 -126 1 -286 -2
-355 -7z m-630 -876 c267 -65 481 -281 547 -551 25 -102 22 -267 -6 -366 -71
-253 -260 -449 -506 -526 -108 -34 -276 -39 -385 -11 -150 38 -281 112 -377
213 -340 361 -242 950 196 1177 169 87 349 109 531 64z"/>
<path d="M3408 3944 c-164 -39 -291 -161 -333 -318 -74 -273 120 -546 400
-564 238 -14 435 142 477 378 40 229 -130 466 -366 509 -75 14 -106 13 -178
-5z"/>
<path d="M1056 3720 c-231 -19 -284 -29 -348 -61 -83 -43 -129 -100 -395 -503
-146 -220 -274 -418 -286 -440 -16 -31 -22 -59 -22 -116 0 -65 4 -82 29 -128
35 -62 87 -107 148 -127 34 -12 412 -75 446 -75 5 0 24 62 42 138 99 414 276
807 542 1199 95 140 91 133 76 132 -7 -1 -111 -10 -232 -19z"/>
<path d="M1057 2661 c-77 -214 -143 -499 -134 -577 10 -89 29 -112 549 -631
490 -488 505 -501 561 -519 52 -16 67 -17 144 -5 116 16 323 70 462 120 63 23
117 43 120 46 5 6 -1649 1665 -1660 1665 -4 0 -23 -44 -42 -99z"/>
<path d="M585 1679 c-11 -6 -143 -133 -293 -283 -296 -295 -304 -305 -282
-385 13 -48 66 -97 114 -106 76 -15 85 -8 370 274 148 146 274 280 282 298 33
76 4 160 -66 195 -39 20 -95 23 -125 7z"/>
<path d="M3625 1223 c-407 -277 -822 -463 -1257 -563 -54 -12 -98 -27 -98 -32
0 -34 63 -411 75 -446 20 -61 65 -113 127 -148 46 -25 63 -29 128 -29 57 0 85
6 116 22 23 12 221 141 440 286 462 305 496 336 533 474 9 34 52 503 47 510
-1 1 -51 -32 -111 -74z"/>
<path d="M1025 1224 c-43 -22 -983 -962 -1006 -1006 -10 -21 -19 -51 -19 -68
0 -50 35 -107 80 -130 49 -25 90 -25 138 -1 20 11 256 239 524 508 525 526
510 509 494 597 -17 92 -127 144 -211 100z"/>
<path d="M1465 771 c-16 -10 -148 -137 -292 -282 -221 -224 -262 -270 -268
-301 -21 -111 77 -207 182 -179 54 15 587 549 598 599 14 69 -16 136 -75 167
-40 21 -109 19 -145 -4z"/>
</g>
</svg>
